<?xml version="1.0" encoding="UTF-8" standalone="no"?>
<!-- Created with Inkscape (http://www.inkscape.org/) -->

<svg
   xmlns:dc="http://purl.org/dc/elements/1.1/"
   xmlns:cc="http://creativecommons.org/ns#"
   xmlns:rdf="http://www.w3.org/1999/02/22-rdf-syntax-ns#"
   xmlns:svg="http://www.w3.org/2000/svg"
   xmlns="http://www.w3.org/2000/svg"
   xmlns:xlink="http://www.w3.org/1999/xlink"
   xmlns:sodipodi="http://sodipodi.sourceforge.net/DTD/sodipodi-0.dtd"
   xmlns:inkscape="http://www.inkscape.org/namespaces/inkscape"
   width="1600"
   height="1200"
   id="svg2160"
   sodipodi:version="0.32"
   inkscape:version="0.48.2 r9819"
   sodipodi:docname="Suitcase_icon_blue_green_red_dynamic_v17.svg"
   inkscape:output_extension="org.inkscape.output.svg.inkscape"
   version="1.0">
  <defs
     id="defs2162">
    <linearGradient
       inkscape:collect="always"
       id="linearGradient3382">
      <stop
         style="stop-color:#000000;stop-opacity:1;"
         offset="0"
         id="stop3384" />
      <stop
         style="stop-color:#000000;stop-opacity:0;"
         offset="1"
         id="stop3386" />
    </linearGradient>
    <linearGradient
       inkscape:collect="always"
       id="linearGradient3344">
      <stop
         style="stop-color:#006599;stop-opacity:1;"
         offset="0"
         id="stop3346" />
      <stop
         style="stop-color:#006599;stop-opacity:0;"
         offset="1"
         id="stop3348" />
    </linearGradient>
    <linearGradient
       inkscape:collect="always"
       id="linearGradient3336">
      <stop
         style="stop-color:#339967;stop-opacity:1;"
         offset="0"
         id="stop3338" />
      <stop
         style="stop-color:#339967;stop-opacity:0;"
         offset="1"
         id="stop3340" />
    </linearGradient>
    <linearGradient
       inkscape:collect="always"
       id="linearGradient3328">
      <stop
         style="stop-color:#990100;stop-opacity:1;"
         offset="0"
         id="stop3330" />
      <stop
         style="stop-color:#990100;stop-opacity:0;"
         offset="1"
         id="stop3332" />
    </linearGradient>
    <linearGradient
       id="linearGradient3169">
      <stop
         style="stop-color:#339967;stop-opacity:1;"
         offset="0"
         id="stop3171" />
      <stop
         style="stop-color:#339967;stop-opacity:0;"
         offset="1"
         id="stop3173" />
    </linearGradient>
    <linearGradient
       inkscape:collect="always"
       xlink:href="#linearGradient3328"
       id="linearGradient3334"
       x1="2.4091508"
       y1="844.06395"
       x2="1124.7666"
       y2="844.06395"
       gradientUnits="userSpaceOnUse"
       gradientTransform="translate(-3.4474141e-5,3.9655207e-6)" />
    <linearGradient
       inkscape:collect="always"
       xlink:href="#linearGradient3336"
       id="linearGradient3342"
       x1="179.06298"
       y1="956.49798"
       x2="1301.4203"
       y2="956.49798"
       gradientUnits="userSpaceOnUse"
       gradientTransform="translate(-3.4474141e-5,3.9655207e-6)" />
    <linearGradient
       inkscape:collect="always"
       xlink:href="#linearGradient3344"
       id="linearGradient3350"
       x1="348.46304"
       y1="1067.0477"
       x2="1470.8204"
       y2="1067.0477"
       gradientUnits="userSpaceOnUse"
       gradientTransform="translate(-3.4474141e-5,3.9655207e-6)" />
    <linearGradient
       inkscape:collect="always"
       xlink:href="#linearGradient3382"
       id="linearGradient3388"
       x1="-1277.19"
       y1="23.438755"
       x2="-11.52943"
       y2="23.438755"
       gradientUnits="userSpaceOnUse" />
  </defs>
  <sodipodi:namedview
     id="base"
     pagecolor="#ffffff"
     bordercolor="#666666"
     borderopacity="1.0"
     inkscape:pageopacity="0.0"
     inkscape:pageshadow="2"
     inkscape:zoom="0.45471496"
     inkscape:cx="824.01965"
     inkscape:cy="603.59858"
     inkscape:current-layer="layer3"
     inkscape:document-units="px"
     borderlayer="true"
     inkscape:window-width="1366"
     inkscape:window-height="746"
     inkscape:window-x="0"
     inkscape:window-y="26"
     showguides="true"
     inkscape:guide-bbox="true"
     showgrid="false"
     inkscape:window-maximized="1">
    <sodipodi:guide
       orientation="horizontal"
       position="2071.9103"
       id="guide4247" />
  </sodipodi:namedview>
  <metadata
     id="metadata2165">
    <rdf:RDF>
      <cc:Work
         rdf:about="">
        <dc:format>image/svg+xml</dc:format>
        <dc:type
           rdf:resource="http://purl.org/dc/dcmitype/StillImage" />
        <dc:title></dc:title>
      </cc:Work>
    </rdf:RDF>
  </metadata>
  <g
     inkscape:groupmode="layer"
     id="layer1"
     inkscape:label="2"
     style="display:inline" />
  <g
     inkscape:groupmode="layer"
     id="layer3"
     inkscape:label="svf schweif">
    <path
       style="fill:#006599;fill-opacity:0.92156863;fill-rule:evenodd"
       d="m 808.15983,656.27932 -39.7887,-51.3511 -242.3584,0 0,0 c -63.66926,0 -104.90893,-0.9057 -122.99088,-2.7413 7.23193,15.5765 22.42412,29.3346 44.1295,39.425 22.42816,9.1676 48.47303,14.6674 78.86138,14.6674 l 41.95711,0"
       id="path2327"
       sodipodi:nodetypes="cccccccc"
       inkscape:connector-curvature="0" />
    <path
       style="fill:#990100;fill-opacity:0.85098039;fill-rule:evenodd"
       clip-rule="evenodd"
       d="m 353.8314,488.41242 339.39341,0 -49.99433,-63.3692 -284.47086,0 c -95.05627,0 -165.4685,-6.23609 -211.24193,-18.74 -44.3586,-11.59723 -69.70349,-27.6608 -76.04268,-49.0788 -0.70483,5.35782 -0.70483,9.81913 -0.70483,14.28035 0,25.88096 9.85924,48.18558 30.27982,66.92889 16.19446,14.27539 35.90896,24.98105 59.14607,31.23548 64.24668,20.07968 97.50324,16.99615 193.63533,18.74328 z"
       id="path2331"
       sodipodi:nodetypes="ccccccsccc"
       inkscape:connector-curvature="0" />
    <path
       style="fill:#339967;fill-opacity:0.92156863;fill-rule:evenodd"
       clip-rule="evenodd"
       d="m 391.14727,519.27942 c -60.55304,0 -109.83856,-2.6847 -147.8658,-8.0376 28.27292,55.2188 91.46471,62.4787 138.71799,64.2542 l 370.37005,0 -44.36121,-56.2166 -316.86103,0 0,0 z"
       id="path2333"
       sodipodi:nodetypes="ccccccc"
       inkscape:connector-curvature="0" />
    <path
       style="fill:#006599;fill-opacity:0.92156863;fill-rule:evenodd"
       d="m 822.47023,656.27932 39.7887,-51.3511 242.35847,0 0,0 c 63.6692,0 104.9089,-0.9057 122.9909,-2.7413 -7.232,15.5765 -22.4242,29.3346 -44.1295,39.425 -22.4282,9.1676 -48.4731,14.6674 -78.8614,14.6674 l -41.9571,0"
       id="path3405"
       sodipodi:nodetypes="cccccccc"
       inkscape:connector-curvature="0" />
    <path
       style="fill:#990100;fill-opacity:0.85098039;fill-rule:evenodd"
       clip-rule="evenodd"
       d="m 1276.7987,488.41242 -339.3935,0 49.9944,-63.3692 284.4709,0 c 95.0562,0 165.4685,-6.23609 211.2419,-18.74 44.3586,-11.59723 69.7035,-27.6608 76.0427,-49.0788 0.7048,5.35782 0.7048,9.81913 0.7048,14.28035 0,25.88096 -9.8592,48.18558 -30.2798,66.92889 -16.1945,14.27539 -35.909,24.98105 -59.1461,31.23548 -64.2466,20.07968 -97.5032,16.99615 -193.6353,18.74328 z"
       id="path3407"
       sodipodi:nodetypes="ccccccsccc"
       inkscape:connector-curvature="0" />
    <path
       style="fill:#339967;fill-opacity:0.92156863;fill-rule:evenodd"
       clip-rule="evenodd"
       d="m 1239.4828,519.27942 c 60.5531,0 109.8386,-2.6847 147.8658,-8.0376 -28.2729,55.2188 -91.4647,62.4787 -138.718,64.2542 l -370.37005,0 44.36125,-56.2166 316.861,0 0,0 z"
       id="path3409"
       sodipodi:nodetypes="ccccccc"
       inkscape:connector-curvature="0" />
  </g>
  <g
     inkscape:groupmode="layer"
     id="layer2"
     inkscape:label="svg"
     style="display:inline" />
</svg>
